<?xml version="1.0" encoding="UTF-8" standalone="no"?>
<!-- Created with Inkscape (http://www.inkscape.org/) -->

<svg
   version="1.1"
   id="svg1"
   width="424.03796"
   height="553.16016"
   viewBox="0 0 424.03797 553.16016"
   xmlns="http://www.w3.org/2000/svg"
   xmlns:svg="http://www.w3.org/2000/svg">
  <defs
     id="defs1" />
  <g
     id="g1"
     transform="translate(-612.73522,-483.99356)">
    <g
       id="group-R5"
       transform="translate(0.80157052)">
      <g
         id="long-vertical-waves"
         transform="translate(174.74237,431.24494)">
        <title
           id="title589">long-vertical-waves</title>
        <path
           id="path64"
           d="m 437.20945,82.027727 c 25.46334,0.501012 53.73661,6.235485 75.68328,-10.635275 17.88023,-14.581455 44.37738,-18.360176 62.67268,-2.472244 24.24336,20.112284 56.6147,8.780714 84.95627,12.428702 35.02509,2.542903 72.86927,-0.09602 101.48227,-22.798056 21.8706,-15.590915 45.01685,5.040921 64.25449,14.999537 10.70496,5.750646 22.80661,8.62131 34.951,8.477336"
           style="fill:none;stroke:#ffffff;stroke-width:0.333333;stroke-linecap:butt;stroke-linejoin:miter;stroke-miterlimit:10;stroke-dasharray:none;stroke-opacity:1" />
        <path
           id="path65"
           d="m 437.20945,90.111727 c 25.25878,0.471924 53.40205,6.130842 75.05393,-10.817794 17.78405,-15.069464 44.1874,-17.465349 62.48892,-2.043285 25.71637,19.828758 59.2774,9.101804 88.92797,12.4085 34.92529,1.458292 70.80319,-3.316705 101.44133,-21.134511 27.59702,-11.934641 51.26292,14.804523 77.30942,19.48238 6.14992,1.431562 12.46843,2.081409 18.77842,2.10471"
           style="fill:none;stroke:#ffffff;stroke-width:0.333333;stroke-linecap:butt;stroke-linejoin:miter;stroke-miterlimit:10;stroke-dasharray:none;stroke-opacity:1" />
        <path
           id="path66"
           d="m 437.20945,98.194387 c 26.66691,0.979393 56.31942,5.507213 78.55788,-13.231547 18.13416,-15.265282 44.00242,-12.486699 61.44776,2.151639 25.30557,17.491281 57.35942,8.507605 85.96719,10.892696 35.84241,0.377829 71.43301,-6.105529 104.98382,-18.575558 32.34299,-7.117899 60.45066,21.537993 93.04334,18.76277"
           style="fill:none;stroke:#ffffff;stroke-width:0.333333;stroke-linecap:butt;stroke-linejoin:miter;stroke-miterlimit:10;stroke-dasharray:none;stroke-opacity:1" />
        <path
           id="path67"
           d="m 437.20945,106.27973 c 26.82396,0.94696 56.59573,5.21373 78.98313,-13.492339 18.1882,-15.240565 44.08675,-12.208832 61.3578,2.624743 25.06917,17.222036 57.15698,9.670756 85.56886,10.760796 26.9685,-3.97453 53.99275,-7.409255 81.13332,-10.169686 22.162,-5.793743 45.68185,-7.616344 67.4055,1.204358 16.13181,4.738248 32.58637,9.283498 49.55138,9.076128"
           style="fill:none;stroke:#ffffff;stroke-width:0.333333;stroke-linecap:butt;stroke-linejoin:miter;stroke-miterlimit:10;stroke-dasharray:none;stroke-opacity:1" />
        <path
           id="path68"
           d="m 437.20945,114.36639 c 27.00192,0.90734 56.89715,4.91486 79.48324,-13.71206 18.23938,-15.140738 44.13169,-12.017735 61.26575,2.96308 24.75398,16.75545 56.54137,10.6138 84.6256,10.76839 27.02038,-4.54301 53.93821,-10.25251 81.54501,-9.68851 39.42548,-3.07147 77.7801,9.83121 117.08039,9.6691"
           style="fill:none;stroke:#ffffff;stroke-width:0.333333;stroke-linecap:butt;stroke-linejoin:miter;stroke-miterlimit:10;stroke-dasharray:none;stroke-opacity:1" />
        <path
           id="path69"
           d="m 437.20945,122.45039 c 27.08594,0.85506 57.02683,4.68648 79.72911,-13.83362 18.27896,-15.078615 44.07103,-11.708046 61.14574,3.22692 23.28771,14.97747 52.76392,11.13878 79.10781,11.10953 28.77985,-4.45991 57.31829,-12.96325 86.8054,-9.34945 39.18685,1.38719 77.94627,8.93314 117.21193,8.84929"
           style="fill:none;stroke:#ffffff;stroke-width:0.333333;stroke-linecap:butt;stroke-linejoin:miter;stroke-miterlimit:10;stroke-dasharray:none;stroke-opacity:1" />
        <path
           id="path70"
           d="m 437.20945,130.53439 c 27.08234,0.7849 56.99796,4.52807 79.74338,-13.85364 18.30807,-15.02599 43.96409,-11.25866 61.05894,3.43311 23.23689,14.52439 52.48874,11.89406 78.72442,11.2843 26.63777,-3.32814 52.33659,-16.28615 79.70016,-10.14045 41.15482,7.50309 83.00146,9.64537 124.77309,9.27668"
           style="fill:none;stroke:#ffffff;stroke-width:0.333333;stroke-linecap:butt;stroke-linejoin:miter;stroke-miterlimit:10;stroke-dasharray:none;stroke-opacity:1" />
        <path
           id="path71"
           d="m 437.20945,138.61972 c 27.10648,0.68253 56.62026,4.3064 80.08692,-12.6504 22.97896,-17.68917 50.64104,-5.36058 70.75646,9.86114 27.30865,8.41699 57.09076,5.36921 84.95717,1.16689 28.21315,-6.8643 58.11765,-11.89068 86.25312,-1.6446 33.55137,7.06871 67.99067,3.32403 101.94632,3.26697"
           style="fill:none;stroke:#ffffff;stroke-width:0.333333;stroke-linecap:butt;stroke-linejoin:miter;stroke-miterlimit:10;stroke-dasharray:none;stroke-opacity:1" />
        <path
           id="path72"
           d="m 437.20945,146.70639 c 27.19366,0.55014 56.19882,3.96969 80.69803,-10.79715 26.35214,-18.05226 53.10551,0.54811 76.20863,13.33982 36.88391,5.66171 73.86874,-4.52752 110.15679,-10.29077 29.90757,-6.37763 56.98816,12.26959 86.65362,11.00798 23.4842,0.43753 46.80723,-3.30535 70.28292,-3.25988"
           style="fill:none;stroke:#ffffff;stroke-width:0.333333;stroke-linecap:butt;stroke-linejoin:miter;stroke-miterlimit:10;stroke-dasharray:none;stroke-opacity:1" />
        <path
           id="path73"
           d="m 437.20945,154.79172 c 28.75334,0.77818 58.67397,2.9571 85.25949,-10.4475 27.8347,-15.60504 51.18872,8.38981 75.65187,16.93238 26.04686,1.92288 51.80209,-5.57039 77.44583,-9.32386 26.62232,-6.08058 55.53265,-8.54584 80.84353,3.85043 34.2904,11.92747 69.91666,-1.29559 104.79927,-1.01145"
           style="fill:none;stroke:#ffffff;stroke-width:0.333333;stroke-linecap:butt;stroke-linejoin:miter;stroke-miterlimit:10;stroke-dasharray:none;stroke-opacity:1" />
        <path
           id="path74"
           d="m 437.20945,162.87839 c 28.89053,0.75087 58.61712,2.96856 86.017,-8.35847 28.35776,-14.0653 50.98865,10.13249 75.82458,17.98889 23.51196,1.3281 45.84082,-8.80131 69.07312,-11.28534 30.69543,-7.02141 64.6997,-9.54847 92.69583,7.66441 32.88743,18.50711 66.40919,-7.55291 100.38946,-6.00946"
           style="fill:none;stroke:#ffffff;stroke-width:0.333333;stroke-linecap:butt;stroke-linejoin:miter;stroke-miterlimit:10;stroke-dasharray:none;stroke-opacity:1" />
        <path
           id="path75"
           d="m 437.20945,170.96372 c 30.5176,0.86663 61.45175,2.22993 90.96275,-7.21827 28.99288,-11.73341 48.72853,17.34784 74.96662,20.27222 21.11137,-0.97461 40.13991,-12.31577 61.26502,-14.2349 32.11332,-6.9785 68.4027,-9.67625 96.73199,10.23879 20.00262,14.00094 44.0899,6.05455 64.4049,-2.49031 11.44499,-4.05368 23.47724,-6.6979 35.66871,-6.57019"
           style="fill:none;stroke:#ffffff;stroke-width:0.333333;stroke-linecap:butt;stroke-linejoin:miter;stroke-miterlimit:10;stroke-dasharray:none;stroke-opacity:1" />
        <path
           id="path76"
           d="m 437.20945,179.04506 c 30.58703,0.39556 61.42064,2.25369 91.47967,-4.86828 30.42326,-10.92924 50.09855,21.92175 78.46364,20.99139 22.80026,-5.21045 43.62829,-18.57951 68.15445,-16.27284 25.59955,-4.91989 54.60805,-10.38788 77.11734,7.01904 17.86965,14.54307 42.73831,19.28272 62.83145,5.93712 14.41413,-6.98066 29.58714,-13.35646 45.95344,-12.80643"
           style="fill:none;stroke:#ffffff;stroke-width:0.333333;stroke-linecap:butt;stroke-linejoin:miter;stroke-miterlimit:10;stroke-dasharray:none;stroke-opacity:1" />
        <path
           id="path77"
           d="m 437.20945,187.13172 c 32.26853,0.37466 64.58757,1.84451 96.63255,-2.98011 29.88439,-8.11324 48.4837,26.73448 77.29911,21.1243 22.3847,-9.56783 44.60744,-20.289 69.94726,-18.51647 25.03638,-6.05723 53.3645,-6.71284 74.1818,10.97361 18.11282,16.52032 44.41675,16.38182 63.75327,1.89262 12.85146,-7.43594 27.07472,-13.05993 42.186,-12.49395"
           style="fill:none;stroke:#ffffff;stroke-width:0.333333;stroke-linecap:butt;stroke-linejoin:miter;stroke-miterlimit:10;stroke-dasharray:none;stroke-opacity:1" />
        <path
           id="path78"
           d="m 437.20945,195.21706 c 35.31371,0.38609 70.58224,1.15805 105.84053,-1.03867 28.02602,-3.40635 48.89322,31.40317 77.11379,16.76097 34.39387,-19.17852 76.79007,-25.19504 115.02671,-15.48285 22.63325,6.90505 43.92978,30.85727 69.15292,17.92319 18.40661,-7.66334 36.04689,-19.2463 56.86604,-18.1623"
           style="fill:none;stroke:#ffffff;stroke-width:0.333333;stroke-linecap:butt;stroke-linejoin:miter;stroke-miterlimit:10;stroke-dasharray:none;stroke-opacity:1" />
        <path
           id="path79"
           d="m 437.20945,203.30106 c 42.17167,-0.0245 85.04411,-4.93134 126.66048,3.88302 20.88575,13.892 48.16644,22.7597 69.94853,5.3316 36.04447,-15.32159 79.40327,-19.10148 116.03365,-3.54529 17.94638,9.33372 41.53467,21.10656 60.10192,6.70418 15.31922,-9.55213 33.14656,-14.54144 51.25541,-12.37351"
           style="fill:none;stroke:#ffffff;stroke-width:0.333333;stroke-linecap:butt;stroke-linejoin:miter;stroke-miterlimit:10;stroke-dasharray:none;stroke-opacity:1" />
        <path
           id="path80"
           d="m 437.20945,211.38372 c 41.77977,0.0191 83.87846,-0.78748 125.30619,5.26981 21.35251,12.09137 48.51002,22.20126 69.9378,4.28217 41.424,-19.30735 92.06966,-18.37811 133.05138,1.87006 20.90944,11.99546 42.13458,1.87877 61.28462,-7.82737 11.11761,-3.33132 22.85424,-4.55404 34.42,-3.58933"
           style="fill:none;stroke:#ffffff;stroke-width:0.333333;stroke-linecap:butt;stroke-linejoin:miter;stroke-miterlimit:10;stroke-dasharray:none;stroke-opacity:1" />
        <path
           id="path81"
           d="m 437.20945,219.47039 c 43.03744,0.54022 87.11667,-1.97435 129.10135,8.91002 22.24487,14.01434 49.91194,14.98111 70.67765,-1.95663 43.01788,-18.04203 92.77431,-13.02335 134.99104,4.90969 22.51314,10.81539 41.75293,-7.30338 63.4187,-10.43785 8.50307,-1.52614 17.19211,-1.99428 25.81125,-1.42256"
           style="fill:none;stroke:#ffffff;stroke-width:0.333333;stroke-linecap:butt;stroke-linejoin:miter;stroke-miterlimit:10;stroke-dasharray:none;stroke-opacity:1" />
        <path
           id="path82"
           d="m 437.20945,227.55572 c 41.50474,0.18211 82.65234,6.86041 124.0824,8.3448 25.28209,12.95309 54.39373,17.39839 77.38858,-2.67843 43.94434,-17.48087 93.42466,-10.06804 136.87218,5.24597 29.30977,8.77267 56.65521,-10.84748 85.65683,-10.907"
           style="fill:none;stroke:#ffffff;stroke-width:0.333333;stroke-linecap:butt;stroke-linejoin:miter;stroke-miterlimit:10;stroke-dasharray:none;stroke-opacity:1" />
        <path
           id="path83"
           d="m 437.20945,235.64239 c 28.60687,-1.72558 57.28653,-0.52262 85.16716,6.63233 28.01913,0.954 54.25156,8.2912 81.17558,14.23717 22.40614,-3.45695 39.37279,-23.5893 63.39023,-23.67635 38.83689,-5.85355 77.66501,2.78316 114.93986,13.00574 27.01183,4.91991 52.53618,-10.02822 79.32716,-10.19889"
           style="fill:none;stroke:#ffffff;stroke-width:0.333333;stroke-linecap:butt;stroke-linejoin:miter;stroke-miterlimit:10;stroke-dasharray:none;stroke-opacity:1" />
        <path
           id="path84"
           d="m 437.20945,243.72772 c 24.75809,-0.79271 50.06669,-2.55822 73.58999,6.90363 27.84215,9.28166 56.46703,1.68831 84.418,11.7697 25.42874,3.27409 43.04602,-21.41134 68.06507,-22.52763 40.00982,-7.39322 79.69234,4.25225 118.29971,13.34428 27.02455,4.12898 52.78717,-9.31495 79.62722,-9.48998"
           style="fill:none;stroke:#ffffff;stroke-width:0.333333;stroke-linecap:butt;stroke-linejoin:miter;stroke-miterlimit:10;stroke-dasharray:none;stroke-opacity:1" />
        <path
           id="path85"
           d="m 437.20945,251.81172 c 44.19336,0.53856 87.59702,10.54113 131.64783,13.08449 27.33888,9.55585 53.3785,-0.0417 76.66665,-14.15227 40.1369,-15.35569 83.09114,-2.66346 122.8298,7.14356 31.13594,4.91213 61.81064,-5.72355 92.85571,-6.07578"
           style="fill:none;stroke:#ffffff;stroke-width:0.333333;stroke-linecap:butt;stroke-linejoin:miter;stroke-miterlimit:10;stroke-dasharray:none;stroke-opacity:1" />
        <path
           id="path86"
           d="m 437.20945,259.90239 c 26.74479,-1.72702 53.829,-1.03291 79.20753,8.64476 25.91836,7.27892 52.98901,0.32452 79.30446,5.83124 26.40403,2.27222 45.11109,-21.81395 70.95042,-23.50196 36.11673,-6.63669 70.68132,8.51773 105.24508,15.91232 30.01756,3.88814 59.40101,-6.44429 89.2925,-6.8917"
           style="fill:none;stroke:#ffffff;stroke-width:0.333333;stroke-linecap:butt;stroke-linejoin:miter;stroke-miterlimit:10;stroke-dasharray:none;stroke-opacity:1" />
        <path
           id="path87"
           d="m 437.20945,267.98372 c 25.40384,-1.33318 51.36451,-1.57674 75.28292,8.52517 25.95613,10.01615 53.47207,-0.28889 80.24116,3.75265 30.10913,3.15504 51.81342,-24.19256 81.4844,-24.53197 35.11511,-4.34796 66.9333,14.18434 100.5575,19.7455 29.10677,2.84116 57.4614,-7.01677 86.43401,-7.49135"
           style="fill:none;stroke:#ffffff;stroke-width:0.333333;stroke-linecap:butt;stroke-linejoin:miter;stroke-miterlimit:10;stroke-dasharray:none;stroke-opacity:1" />
        <path
           id="path88"
           d="m 437.20945,276.06505 c 25.4622,-1.47916 51.63335,-1.8603 75.28858,9.30728 25.19327,11.1995 51.83399,-1.10314 77.89224,0.16311 28.42769,2.32282 50.79294,-16.92138 77.12542,-22.7818 37.09769,-8.01686 70.35804,15.01188 105.67424,20.74725 29.62858,2.92273 58.51501,-7.12966 88.01951,-7.43584"
           style="fill:none;stroke:#ffffff;stroke-width:0.333333;stroke-linecap:butt;stroke-linejoin:miter;stroke-miterlimit:10;stroke-dasharray:none;stroke-opacity:1" />
        <path
           id="path89"
           d="m 437.20945,284.14905 c 25.4584,-1.53798 51.71381,-1.80918 75.08451,10.11394 25.3462,11.84833 52.08743,-1.50458 78.33689,-1.13673 28.91181,1.53762 51.64451,-17.52562 78.22209,-24.33106 43.77044,-9.87185 79.98427,29.3228 123.48724,23.29699 23.08785,-1.4902 45.67772,-7.6751 68.86926,-7.94314"
           style="fill:none;stroke:#ffffff;stroke-width:0.333333;stroke-linecap:butt;stroke-linejoin:miter;stroke-miterlimit:10;stroke-dasharray:none;stroke-opacity:1" />
        <path
           id="path90"
           d="m 437.20945,292.23705 c 25.32349,-1.28766 51.52478,-2.51984 75.0335,8.9129 25.46327,11.78592 52.42384,-0.6944 78.78832,-0.74456 23.57736,-0.8454 45.91687,-9.07586 65.4553,-22.03475 25.32048,-15.56132 55.91136,-5.1158 78.95379,9.59892 38.70348,25.44554 83.95948,5.00106 125.76908,4.26749"
           style="fill:none;stroke:#ffffff;stroke-width:0.333333;stroke-linecap:butt;stroke-linejoin:miter;stroke-miterlimit:10;stroke-dasharray:none;stroke-opacity:1" />
        <path
           id="path91"
           d="m 437.20945,300.32372 c 26.4216,-1.22561 53.55794,-3.83088 78.83797,6.12323 26.53995,8.76673 54.34648,0.54356 81.52269,0.5851 23.0428,-0.61836 44.09389,-10.42211 62.92089,-23.00088 24.33292,-15.28869 53.23974,-2.65766 74.52673,11.94005 38.49736,26.01139 84.37926,4.93383 126.19171,4.34983"
           style="fill:none;stroke:#ffffff;stroke-width:0.333333;stroke-linecap:butt;stroke-linejoin:miter;stroke-miterlimit:10;stroke-dasharray:none;stroke-opacity:1" />
        <path
           id="path92"
           d="m 437.20945,308.40905 c 27.69504,-1.18129 55.99055,-5.8421 82.97833,3.30584 27.56734,6.63758 56.24558,2.5372 84.27809,1.98342 23.57182,-0.43484 43.42924,-13.3828 62.61347,-25.46249 24.93462,-13.86123 50.63607,4.48101 70.93879,18.14821 38.22819,22.23979 82.51793,2.14436 123.19131,2.02502"
           style="fill:none;stroke:#ffffff;stroke-width:0.333333;stroke-linecap:butt;stroke-linejoin:miter;stroke-miterlimit:10;stroke-dasharray:none;stroke-opacity:1" />
        <path
           id="path93"
           d="m 437.20945,316.49572 c 29.10269,-0.9519 58.58624,-8.52443 87.28398,0.36904 29.55628,5.18032 60.10382,5.58377 89.99331,3.24063 23.04276,-1.01882 39.82318,-17.63501 59.06656,-27.74033 26.00974,-11.09247 47.24713,12.69158 67.67572,24.63112 38.16068,18.18236 80.29185,-0.27794 119.98042,-0.50579"
           style="fill:none;stroke:#ffffff;stroke-width:0.333333;stroke-linecap:butt;stroke-linejoin:miter;stroke-miterlimit:10;stroke-dasharray:none;stroke-opacity:1" />
        <path
           id="path94"
           d="m 437.20945,324.57839 c 30.56797,-0.21055 61.0419,-11.99672 91.38488,-2.61772 34.41,5.05629 70.61219,11.14105 104.82864,1.87398 23.01966,-5.74538 37.8174,-35.65955 64.3897,-26.63019 24.21512,8.70305 39.92546,35.09228 67.72403,35.34009 32.196,3.58323 63.6222,-7.56903 95.67274,-7.96883"
           style="fill:none;stroke:#ffffff;stroke-width:0.333333;stroke-linecap:butt;stroke-linejoin:miter;stroke-miterlimit:10;stroke-dasharray:none;stroke-opacity:1" />
        <path
           id="path95"
           d="m 437.20945,332.66372 c 30.8223,1.40014 60.46,-15.76313 91.17674,-6.51039 38.14521,7.0087 80.23536,17.60908 117.26303,0.76049 16.59215,-9.56444 30.68764,-31.98098 52.85027,-23.38171 23.86624,9.7273 38.53631,37.58973 66.92205,37.25205 32.24587,3.3857 63.68251,-7.82412 95.7879,-8.12044"
           style="fill:none;stroke:#ffffff;stroke-width:0.333333;stroke-linecap:butt;stroke-linejoin:miter;stroke-miterlimit:10;stroke-dasharray:none;stroke-opacity:1" />
        <path
           id="path96"
           d="m 437.20945,340.74905 c 25.0004,1.918 47.65685,-10.90198 72.01355,-12.67539 33.00269,2.60335 64.55805,16.73159 98.1819,14.93755 22.92907,0.7097 45.4442,-8.25198 60.50471,-25.75549 20.41,-19.92017 47.5126,-0.11081 62.07662,16.91553 27.47968,24.483 66.94872,13.92347 99.64789,9.52157 10.45767,-1.55264 20.9866,-2.89192 31.57532,-2.94377"
           style="fill:none;stroke:#ffffff;stroke-width:0.333333;stroke-linecap:butt;stroke-linejoin:miter;stroke-miterlimit:10;stroke-dasharray:none;stroke-opacity:1" />
        <path
           id="path97"
           d="m 437.20945,348.83305 c 24.04377,2.14173 45.67688,-9.28553 68.16637,-15.05702 29.40883,-2.72747 55.25099,16.80006 84.64107,16.74232 27.61762,2.76383 57.94533,-1.50717 78.30638,-22.08146 20.37851,-17.53518 46.0043,-0.056 62.07861,14.66133 30.0449,21.65449 69.09058,10.80294 102.97322,7.60871 9.23918,-1.07017 18.52523,-1.90522 27.83434,-1.87388"
           style="fill:none;stroke:#ffffff;stroke-width:0.333333;stroke-linecap:butt;stroke-linejoin:miter;stroke-miterlimit:10;stroke-dasharray:none;stroke-opacity:1" />
        <path
           id="path98"
           d="m 437.20945,356.91572 c 23.01393,2.0731 44.05597,-7.72563 64.44524,-16.73994 28.8367,-8.74207 52.62303,16.79958 80.91069,17.48189 29.38266,3.52809 62.06189,1.52556 85.90239,-18.04895 23.75106,-17.44054 48.64799,4.90217 69.07306,16.38228 39.67058,14.74817 82.76784,0.1704 123.66861,0.92472"
           style="fill:none;stroke:#ffffff;stroke-width:0.333333;stroke-linecap:butt;stroke-linejoin:miter;stroke-miterlimit:10;stroke-dasharray:none;stroke-opacity:1" />
        <path
           id="path99"
           d="m 437.20945,365.00105 c 23.5345,2.43535 44.66849,-8.43864 64.62299,-19.20066 28.25594,-11.73701 49.82503,17.90507 77.13715,19.14634 31.97565,4.25924 66.56236,1.53606 94.28006,-16.35435 29.87759,-13.3973 53.35772,19.62485 82.53601,19.30288 35.16372,3.11793 70.26858,-2.87241 105.42378,-2.89421"
           style="fill:none;stroke:#ffffff;stroke-width:0.333333;stroke-linecap:butt;stroke-linejoin:miter;stroke-miterlimit:10;stroke-dasharray:none;stroke-opacity:1" />
        <path
           id="path100"
           d="m 437.20945,373.08505 c 22.30299,2.19774 42.79388,-7.30925 60.59323,-19.74571 24.73048,-16.79115 46.86997,8.2705 68.88248,16.40801 36.99076,9.79116 77.19275,4.28342 111.81805,-11.13675 28.46745,-6.02281 51.93904,19.21892 80.47672,16.09678 34.08848,1.08535 68.14754,-1.51609 102.22951,-1.62233"
           style="fill:none;stroke:#ffffff;stroke-width:0.333333;stroke-linecap:butt;stroke-linejoin:miter;stroke-miterlimit:10;stroke-dasharray:none;stroke-opacity:1" />
        <path
           id="path101"
           d="m 437.20945,381.16905 c 22.8228,2.43766 43.27641,-8.37628 60.60546,-22.03129 22.64012,-17.76367 44.82572,4.06777 63.53627,15.90268 31.18567,12.21655 66.16204,7.40559 98.13813,1.06474 25.40613,-13.19168 52.04991,-1.80197 77.35751,4.33904 41.34311,1.51953 82.93441,0.0894 124.36262,0.72483"
           style="fill:none;stroke:#ffffff;stroke-width:0.333333;stroke-linecap:butt;stroke-linejoin:miter;stroke-miterlimit:10;stroke-dasharray:none;stroke-opacity:1" />
        <path
           id="path102"
           d="m 437.20945,389.25305 c 22.19057,2.42843 42.49656,-7.70963 58.27387,-22.56484 21.35381,-21.27038 46.31219,-1.37479 63.10201,14.28512 31.49061,15.75882 68.13552,7.82486 101.67415,5.17241 25.45826,-8.62333 51.27527,-1.10366 76.7267,2.41704 41.40497,-2.71534 82.78267,0.0221 124.22326,0.69027"
           style="fill:none;stroke:#ffffff;stroke-width:0.333333;stroke-linecap:butt;stroke-linejoin:miter;stroke-miterlimit:10;stroke-dasharray:none;stroke-opacity:1" />
        <path
           id="path103"
           d="m 437.20945,397.33838 c 21.98703,2.30525 42.42074,-7.16712 58.39659,-21.67126 21.4129,-21.17078 46.23832,-1.55023 63.03419,14.18712 31.86444,15.91227 68.82795,7.7498 102.81158,5.74085 26.33405,-7.52975 52.91049,0.0522 79.43582,0.21472 40.04196,-6.6408 80.18029,1.07125 120.32181,1.52857"
           style="fill:none;stroke:#ffffff;stroke-width:0.333333;stroke-linecap:butt;stroke-linejoin:miter;stroke-miterlimit:10;stroke-dasharray:none;stroke-opacity:1" />
        <path
           id="path104"
           d="m 437.20945,405.42638 c 22.43917,2.04555 43.35464,-7.08555 60.89373,-20.35194 22.6043,-18.35065 44.23198,4.15937 62.6422,16.20047 35.61572,13.82561 75.12356,6.5691 111.87139,1.92714 28.7061,-6.21928 58.10447,4.64989 86.65079,-3.56375 34.13857,-4.08038 67.87116,5.73558 101.94188,5.78808"
           style="fill:none;stroke:#ffffff;stroke-width:0.333333;stroke-linecap:butt;stroke-linejoin:miter;stroke-miterlimit:10;stroke-dasharray:none;stroke-opacity:1" />
        <path
           id="path105"
           d="m 437.20945,413.51438 c 21.81243,1.3493 42.83727,-5.69688 60.95195,-17.50673 22.20742,-15.90213 42.90121,4.75408 61.54293,15.24494 43.71406,15.94428 90.87959,3.46649 135.34244,-1.37421 21.75672,0.69143 43.78655,2.1997 64.87931,-4.49551 34.07874,-5.19636 67.32422,8.28353 101.28336,8.13151"
           style="fill:none;stroke:#ffffff;stroke-width:0.333333;stroke-linecap:butt;stroke-linejoin:miter;stroke-miterlimit:10;stroke-dasharray:none;stroke-opacity:1" />
        <path
           id="path106"
           d="m 437.20945,421.59972 c 22.87509,1.48863 44.71931,-5.79936 64.80277,-16.06248 24.55113,-12.09234 43.03489,13.88391 65.49864,18.49869 45.09731,12.066 90.96106,-2.14802 136.47484,-2.32666 23.0298,0.37986 44.35916,-9.02962 66.77686,-11.93967 30.72952,-1.60074 59.80255,12.05439 90.44688,11.83012"
           style="fill:none;stroke:#ffffff;stroke-width:0.333333;stroke-linecap:butt;stroke-linejoin:miter;stroke-miterlimit:10;stroke-dasharray:none;stroke-opacity:1" />
        <path
           id="path107"
           d="m 437.20945,429.68638 c 23.69918,1.50199 46.47099,-5.2761 68.30762,-13.6311 26.73965,-7.30827 46.76693,21.28406 73.85943,16.89094 26.12602,2.92739 52.6731,8.0288 78.68813,1.0228 34.84367,-4.24672 71.31761,-2.75887 103.69512,-18.45937 26.69228,-8.69608 50.81174,11.75743 77.21141,12.85971 7.37052,0.9594 14.80863,1.33067 22.23828,1.31702"
           style="fill:none;stroke:#ffffff;stroke-width:0.333333;stroke-linecap:butt;stroke-linejoin:miter;stroke-miterlimit:10;stroke-dasharray:none;stroke-opacity:1" />
        <path
           id="path108"
           d="m 437.20945,437.76772 c 24.45284,1.46575 48.14742,-4.56845 71.57259,-10.51967 27.87922,-0.9607 51.54567,19.96173 80.46474,15.94633 23.2571,5.80197 47.30835,5.70157 70.44505,-0.55749 33.5724,-4.61242 69.24941,-3.3002 99.68918,-20.5074 27.48535,-11.9479 52.03342,12.69701 79.19382,14.16665 7.48958,1.10489 15.06941,1.48945 22.63461,1.47424"
           style="fill:none;stroke:#ffffff;stroke-width:0.333333;stroke-linecap:butt;stroke-linejoin:miter;stroke-miterlimit:10;stroke-dasharray:none;stroke-opacity:1" />
        <path
           id="path109"
           d="m 437.20945,445.85305 c 27.17234,1.36647 53.73661,-3.97872 79.95599,-10.304 21.23827,4.6247 39.17834,18.12772 61.76941,18.93917 28.41485,6.0662 57.27575,2.08176 85.32144,-3.60766 32.50678,-3.44854 67.07815,-4.03555 95.39782,-22.59785 26.17077,-12.5825 49.27718,12.10108 74.68674,15.16472 8.83097,1.8135 17.86812,2.40176 26.86859,2.40562"
           style="fill:none;stroke:#ffffff;stroke-width:0.333333;stroke-linecap:butt;stroke-linejoin:miter;stroke-miterlimit:10;stroke-dasharray:none;stroke-opacity:1" />
        <path
           id="path110"
           d="m 437.20945,453.93972 c 26.70239,0.82389 53.11364,-3.03516 79.36666,-7.34267 20.98967,4.17398 39.64422,15.58932 61.51316,17.07744 26.90613,5.82403 54.35955,2.32482 80.76929,-4.02194 34.22696,-4.4288 71.1488,-3.47911 100.90435,-23.72497 26.01203,-13.91937 49.16675,11.99528 74.44711,15.33162 8.85408,1.96745 17.94519,2.64846 26.99942,2.68052"
           style="fill:none;stroke:#ffffff;stroke-width:0.333333;stroke-linecap:butt;stroke-linejoin:miter;stroke-miterlimit:10;stroke-dasharray:none;stroke-opacity:1" />
        <path
           id="path111"
           d="m 437.20945,462.02238 c 34.76968,0.65889 70.0847,-7.25533 104.14988,3.20705 25.79833,3.12868 51.3056,10.66719 77.3234,10.91551 24.59977,-5.1459 49.1372,-11.07448 74.44592,-11.90478 24.61589,-1.25305 48.5976,-8.51389 69.11212,-22.2614 27.08893,-12.47108 49.66199,15.44044 75.98338,17.93258 7.56476,1.48969 15.28493,2.04712 22.98529,2.11104"
           style="fill:none;stroke:#ffffff;stroke-width:0.333333;stroke-linecap:butt;stroke-linejoin:miter;stroke-miterlimit:10;stroke-dasharray:none;stroke-opacity:1" />
        <path
           id="path112"
           d="m 437.20945,470.11172 c 45.17522,-1.25632 90.50231,0.2642 134.88964,9.44284 23.95449,6.26009 49.20634,9.66984 72.59651,-0.82309 38.30857,-9.10017 81.50773,-3.17298 114.87174,-28.03134 24.78481,-16.13453 47.54819,9.41563 70.99099,15.17171 9.91157,3.046 20.31509,4.13719 30.65111,4.23454"
           style="fill:none;stroke:#ffffff;stroke-width:0.333333;stroke-linecap:butt;stroke-linejoin:miter;stroke-miterlimit:10;stroke-dasharray:none;stroke-opacity:1" />
        <path
           id="path113"
           d="m 437.20945,478.19438 c 55.37621,-1.14424 110.8955,3.85538 164.74024,17.10179 24.76835,3.13071 46.73334,-13.07685 71.42604,-13.33969 30.91247,-2.60747 62.96977,-6.63437 88.89413,-25.24256 26.05465,-15.04969 47.52068,13.53194 72.07826,18.09555 8.74145,2.38462 17.82468,3.24886 26.86132,3.38491"
           style="fill:none;stroke:#ffffff;stroke-width:0.333333;stroke-linecap:butt;stroke-linejoin:miter;stroke-miterlimit:10;stroke-dasharray:none;stroke-opacity:1" />
        <path
           id="path114"
           d="m 437.20945,486.27838 c 45.63969,0.62484 91.53975,3.92986 136.40988,12.32062 23.32702,9.08165 48.77389,9.36369 71.243,-2.28668 37.86017,-11.31124 81.10919,-5.92019 114.3794,-30.77425 23.59686,-17.86432 46.00412,6.52987 67.60287,14.56265 10.9088,4.33462 22.68526,5.96291 34.36484,6.17766"
           style="fill:none;stroke:#ffffff;stroke-width:0.333333;stroke-linecap:butt;stroke-linejoin:miter;stroke-miterlimit:10;stroke-dasharray:none;stroke-opacity:1" />
        <path
           id="path115"
           d="m 437.20945,494.35972 c 43.1436,0.76701 86.02069,7.18361 128.86589,11.35215 23.56414,7.74451 50.05394,16.4078 73.1741,2.20385 38.5095,-16.23417 84.63532,-8.37905 119.39971,-34.71729 22.00338,-17.64028 44.7398,3.25157 64.51907,13.08038 11.86594,5.58058 25.00157,7.84462 38.04122,8.08091"
           style="fill:none;stroke:#ffffff;stroke-width:0.333333;stroke-linecap:butt;stroke-linejoin:miter;stroke-miterlimit:10;stroke-dasharray:none;stroke-opacity:1" />
        <path
           id="path116"
           d="m 437.20945,502.44772 c 41.91792,0.18366 83.3435,7.92818 125.16735,9.74331 23.69186,4.88087 49.18427,16.27516 72.682,3.9201 38.51013,-19.5404 85.78536,-7.6278 122.39126,-32.45678 20.42689,-15.62531 43.39956,-1.25474 62.12008,9.28079 12.96709,6.2547 27.26788,9.33227 41.6393,9.51258"
           style="fill:none;stroke:#ffffff;stroke-width:0.333333;stroke-linecap:butt;stroke-linejoin:miter;stroke-miterlimit:10;stroke-dasharray:none;stroke-opacity:1" />
        <path
           id="path117"
           d="m 437.20945,510.53305 c 43.78402,0.0904 87.15212,7.65692 130.82649,9.60301 23.70117,5.82749 49.52761,11.28515 72.35173,-0.87225 37.0153,-16.6799 80.89134,-3.03108 116.55506,-24.37879 20.28689,-14.08326 43.36121,-3.22979 62.61517,6.67113 13.16024,5.62213 27.31807,8.83589 41.65154,8.97957"
           style="fill:none;stroke:#ffffff;stroke-width:0.333333;stroke-linecap:butt;stroke-linejoin:miter;stroke-miterlimit:10;stroke-dasharray:none;stroke-opacity:1" />
        <path
           id="path118"
           d="m 437.20945,518.61838 c 28.13429,-2.17255 56.65166,-3.78372 84.20149,3.909 27.28217,4.84551 55.11466,4.5298 82.41471,9.51725 27.63635,0.88832 51.6341,-18.02132 79.65948,-15.5428 27.92373,0.70928 56.6501,-0.49156 81.95133,-13.73228 26.76694,-11.88573 51.42259,11.22351 77.59875,14.08933 5.99547,1.09112 12.08253,1.65598 18.17423,1.76217"
           style="fill:none;stroke:#ffffff;stroke-width:0.333333;stroke-linecap:butt;stroke-linejoin:miter;stroke-miterlimit:10;stroke-dasharray:none;stroke-opacity:1" />
        <path
           id="path119"
           d="m 437.20945,526.70505 c 28.2373,-2.29382 56.98121,-5.34246 84.66533,2.88649 27.10074,5.85652 55.05641,4.76087 82.51344,7.83779 27.30477,-0.25324 51.59294,-17.81492 79.4352,-14.27144 28.48154,2.05936 57.98108,2.88969 84.46991,-9.61315 28.5364,-10.2845 55.29057,11.84186 83.68646,12.6598 l 4.52637,0.34169 4.70328,0.15882"
           style="fill:none;stroke:#ffffff;stroke-width:0.333333;stroke-linecap:butt;stroke-linejoin:miter;stroke-miterlimit:10;stroke-dasharray:none;stroke-opacity:1" />
        <path
           id="path120"
           d="m 437.20945,534.78771 c 28.29303,-2.19204 57.21453,-6.82297 84.93316,2.15934 28.08881,6.73183 57.37371,5.07233 86.0159,5.56543 26.53493,-4.07066 52.11331,-16.45235 79.60303,-11.74077 27.83704,3.39838 56.79084,4.84188 83.20507,-6.3625 30.23737,-9.62271 59.81833,11.82412 90.24283,10.38384"
           style="fill:none;stroke:#ffffff;stroke-width:0.333333;stroke-linecap:butt;stroke-linejoin:miter;stroke-miterlimit:10;stroke-dasharray:none;stroke-opacity:1" />
        <path
           id="path121"
           d="m 437.20945,542.87451 c 29.5675,-2.51594 59.88246,-8.02038 88.73708,2.32939 26.879,6.5913 54.96925,3.41484 82.31735,2.75734 26.41296,-4.69176 52.48451,-16.06851 79.80359,-10.02485 28.27432,4.94634 58.12314,8.84403 85.39974,-2.79491 29.2518,-9.1783 58.36218,8.51637 87.74223,7.73303"
           style="fill:none;stroke:#ffffff;stroke-width:0.333333;stroke-linecap:butt;stroke-linejoin:miter;stroke-miterlimit:10;stroke-dasharray:none;stroke-opacity:1" />
        <path
           id="path122"
           d="m 437.36145,551.08638 c 28.07798,-2.2869 56.96463,-9.57512 84.44833,0.70012 29.11295,8.77409 59.9796,3.80347 89.71616,1.93196 25.08048,-5.2988 50.48293,-14.95661 76.35515,-7.92358 26.99241,6.24751 55.66677,11.17051 82.39668,0.87606 30.12794,-10.29661 60.5531,4.4027 90.93167,4.29264"
           style="fill:none;stroke:#ffffff;stroke-width:0.333333;stroke-linecap:butt;stroke-linejoin:miter;stroke-miterlimit:10;stroke-dasharray:none;stroke-opacity:1" />
        <path
           id="path123"
           d="m 437.62678,559.18905 c 27.82677,-2.68563 56.5175,-10.04625 83.76666,0.43511 44.67083,12.74579 91.15239,-0.0755 135.43614,-8.26368 36.20105,-2.94578 71.57178,17.53849 107.68549,6.2419 31.96621,-9.94852 64.36207,1.10216 96.69437,1.4424"
           style="fill:none;stroke:#ffffff;stroke-width:0.333333;stroke-linecap:butt;stroke-linejoin:miter;stroke-miterlimit:10;stroke-dasharray:none;stroke-opacity:1" />
        <path
           id="path124"
           d="m 437.73078,567.08638 c 27.59242,-2.91485 56.17687,-10.42432 83.09233,0.68258 38.674,11.84957 79.61109,1.93595 118.21097,-5.4118 40.96465,-14.00032 81.29535,13.91051 122.59494,5.09783 33.00621,-7.56594 66.30157,-0.78522 99.58042,-0.32328"
           style="fill:none;stroke:#ffffff;stroke-width:0.333333;stroke-linecap:butt;stroke-linejoin:miter;stroke-miterlimit:10;stroke-dasharray:none;stroke-opacity:1" />
        <path
           id="path125"
           d="m 437.70945,575.08225 c 27.52871,-3.21862 56.13553,-10.82364 82.93966,0.72846 37.71925,11.9602 77.69337,1.49335 115.35607,-5.60194 29.46723,-10.41536 59.86196,-0.84072 89.00902,5.3023 39.24178,4.55747 78.94094,-0.49506 118.3652,-0.0524 5.94302,-0.10217 11.88639,-0.18535 17.83004,-0.24153"
           style="fill:none;stroke:#ffffff;stroke-width:0.333333;stroke-linecap:butt;stroke-linejoin:miter;stroke-miterlimit:10;stroke-dasharray:none;stroke-opacity:1" />
        <path
           id="path126"
           d="m 437.64278,583.30625 c 26.34978,-2.97407 53.69504,-11.5506 79.51784,-0.65993 37.75908,13.75603 78.35064,3.02035 116.37752,-3.97718 25.97324,-8.69599 53.53123,-5.49504 79.34342,1.98306 48.50301,11.66739 99.10035,2.00851 148.32788,2.65138"
           style="fill:none;stroke:#ffffff;stroke-width:0.333333;stroke-linecap:butt;stroke-linejoin:miter;stroke-miterlimit:10;stroke-dasharray:none;stroke-opacity:1" />
        <path
           id="path127"
           d="m 437.50678,591.39945 c 26.38595,-3.27529 53.87903,-12.20993 79.70219,-0.76275 36.77781,14.16194 76.55519,3.1978 113.73353,-3.47773 24.79049,-7.73553 51.22102,-7.97096 76.07811,-0.31381 50.26909,15.50916 102.82486,5.10934 154.18883,4.54549"
           style="fill:none;stroke:#ffffff;stroke-width:0.333333;stroke-linecap:butt;stroke-linejoin:miter;stroke-miterlimit:10;stroke-dasharray:none;stroke-opacity:1" />
        <path
           id="path128"
           d="m 437.21745,599.46611 c 26.42036,-3.67114 54.20276,-13.19327 79.91319,-0.61134 31.53874,13.65564 66.1347,3.53255 98.54458,-0.90384 26.12452,-5.05774 52.79093,-13.99671 79.42785,-6.24112 33.245,9.02046 67.51187,15.94363 102.13463,11.99698 21.3217,-1.43201 42.57989,-4.04169 63.97174,-4.23388"
           style="fill:none;stroke:#ffffff;stroke-width:0.333333;stroke-linecap:butt;stroke-linejoin:miter;stroke-miterlimit:10;stroke-dasharray:none;stroke-opacity:1" />
      </g>
    </g>
  </g>
</svg>
