<?xml version="1.0" encoding="UTF-8" standalone="no"?>
<!-- Created with Inkscape (http://www.inkscape.org/) -->

<svg
   version="1.1"
   id="svg1"
   width="104.93149"
   height="105.06104"
   viewBox="0 0 104.93149 105.06104"
   xmlns="http://www.w3.org/2000/svg"
   xmlns:svg="http://www.w3.org/2000/svg">
  <defs
     id="defs1" />
  <g
     id="g1"
     transform="translate(-463.08059,-284.38902)">
    <g
       id="group-R5"
       transform="translate(0.80157052)">
      <g
         id="white-stripes-sphere-small">
        <title
           id="title590">white-stripes-sphere-small</title>
        <path
           id="path225"
           d="m 562.18036,359.6767 c -8.64272,8.28644 -17.18918,16.81334 -25.892,24.94966 8.14019,-8.70202 16.66228,-17.24944 24.94934,-25.892 0.59714,-0.64856 1.59402,0.34504 0.94266,0.94267"
           style="fill:#ffffff;fill-opacity:1;fill-rule:nonzero;stroke:none;stroke-width:0.133333" />
        <path
           id="path226"
           d="m 564.8857,352.5007 c -11.88178,11.61022 -23.76356,23.22044 -35.64534,34.83066 0.50777,-1.13036 2.38152,-2.51817 3.40312,-3.74138 10.43318,-10.6772 20.86637,-21.35441 31.29955,-32.03162 0.59724,-0.64125 1.58537,0.34315 0.94267,0.94267"
           style="fill:#ffffff;fill-opacity:1;fill-rule:nonzero;stroke:none;stroke-width:0.133333" />
        <path
           id="path227"
           d="m 566.23103,346.6847 c -14.26933,13.99733 -28.53867,27.99467 -42.808,41.992 0.50942,-1.12874 2.38638,-2.5134 3.41022,-3.73441 12.81837,-13.06664 25.63674,-26.13328 38.45511,-39.19992 0.59539,-0.64262 1.58656,0.3466 0.94267,0.94266"
           style="fill:#ffffff;fill-opacity:1;fill-rule:nonzero;stroke:none;stroke-width:0.133333" />
        <path
           id="path228"
           d="m 566.8617,341.57803 c -16.18089,15.90978 -32.36178,31.81955 -48.54267,47.72933 0.51207,-1.12662 2.38889,-2.50999 3.41419,-3.72918 14.7286,-14.98083 29.45721,-29.96166 44.18581,-44.94249 0.59675,-0.63843 1.58242,0.34595 0.94267,0.94266"
           style="fill:#ffffff;fill-opacity:1;fill-rule:nonzero;stroke:none;stroke-width:0.133333" />
        <path
           id="path229"
           d="m 567.0017,336.96603 c -17.76489,17.49467 -35.52978,34.98933 -53.29467,52.484 0.51095,-1.12724 2.39095,-2.50892 3.41689,-3.72786 16.31171,-16.56616 32.62341,-33.13231 48.93511,-49.69847 0.59592,-0.63868 1.58467,0.3469 0.94267,0.94267"
           style="fill:#ffffff;fill-opacity:1;fill-rule:nonzero;stroke:none;stroke-width:0.133333" />
        <path
           id="path230"
           d="m 566.78303,332.7167 c -19.10978,18.83733 -38.21955,37.67467 -57.32933,56.512 0.5166,-1.12875 2.39242,-2.50707 3.42037,-3.72574 17.65543,-17.90953 35.31086,-35.81906 52.96629,-53.72859 0.59625,-0.63719 1.58425,0.3456 0.94267,0.94266"
           style="fill:#ffffff;fill-opacity:1;fill-rule:nonzero;stroke:none;stroke-width:0.133333" />
        <path
           id="path231"
           d="m 505.3937,388.5607 c 19.96889,-20.23956 39.93777,-40.47911 59.90666,-60.71867 2.70439,0.239 -1.18483,2.77422 -2.01941,3.86481 -19.25309,18.9935 -38.50617,37.98701 -57.75925,56.98051 h -0.128 v -0.12666 z"
           style="fill:#ffffff;fill-opacity:1;fill-rule:nonzero;stroke:none;stroke-width:0.133333" />
        <path
           id="path232"
           d="m 565.47636,325.07803 c -21.21911,20.94756 -42.43822,41.89511 -63.65733,62.84267 0.51377,-1.12495 2.39391,-2.50504 3.42153,-3.72195 19.76438,-20.02101 39.52876,-40.04203 59.29314,-60.06304 0.59756,-0.63577 1.57929,0.34659 0.94266,0.94267"
           style="fill:#ffffff;fill-opacity:1;fill-rule:nonzero;stroke:none;stroke-width:0.133333" />
        <path
           id="path233"
           d="m 564.4737,321.6087 c -22.04178,21.77022 -44.08356,43.54044 -66.12534,65.31066 0.51741,-1.1256 2.3947,-2.50454 3.42371,-3.72146 20.58632,-20.84396 41.17264,-41.68791 61.75896,-62.53187 0.59838,-0.63549 1.57863,0.34258 0.94267,0.942"
           style="fill:#ffffff;fill-opacity:1;fill-rule:nonzero;stroke:none;stroke-width:0.133333" />
        <path
           id="path234"
           d="m 563.29503,318.31537 c -22.74622,22.47511 -45.49245,44.95022 -68.23867,67.42533 0.51066,-1.12464 2.3954,-2.5052 3.4231,-3.72208 21.29097,-21.54864 42.58193,-43.09728 63.8729,-64.64592 0.59777,-0.63594 1.57912,0.34677 0.94267,0.94266"
           style="fill:#ffffff;fill-opacity:1;fill-rule:nonzero;stroke:none;stroke-width:0.133333" />
        <path
           id="path235"
           d="m 561.9297,315.2087 c -23.32711,23.05511 -46.65423,46.11022 -69.98134,69.16533 0.51597,-1.12654 2.3958,-2.50441 3.42501,-3.72151 21.87122,-22.12883 43.74244,-44.25766 65.61366,-66.38649 0.59731,-0.63516 1.57857,0.34491 0.94267,0.94267 z"
           style="fill:#ffffff;fill-opacity:1;fill-rule:nonzero;stroke:none;stroke-width:0.133333" />
        <path
           id="path236"
           d="m 560.40036,312.26603 c -23.79822,23.52622 -47.59644,47.05245 -71.39466,70.57867 0.51603,-1.12643 2.39609,-2.50413 3.42542,-3.72109 22.34219,-22.60008 44.68439,-45.20016 67.02658,-67.80024 0.59638,-0.6354 1.58096,0.3458 0.94266,0.94267"
           style="fill:#ffffff;fill-opacity:1;fill-rule:nonzero;stroke:none;stroke-width:0.133333" />
        <path
           id="path237"
           d="m 558.72436,309.4687 c -24.17155,23.90089 -48.34311,47.80177 -72.51466,71.70266 0.51095,-1.12436 2.39625,-2.50436 3.42435,-3.72084 22.71588,-22.97483 45.43177,-45.94966 68.14765,-68.92449 0.59645,-0.63543 1.58088,0.34586 0.94266,0.94267 z"
           style="fill:#ffffff;fill-opacity:1;fill-rule:nonzero;stroke:none;stroke-width:0.133333" />
        <path
           id="path238"
           d="m 556.90836,306.81537 c -24.45067,24.17911 -48.90133,48.35822 -73.352,72.53733 0.51274,-1.12307 2.39623,-2.50343 3.42461,-3.71925 22.99491,-23.25358 45.98982,-46.50717 68.98473,-69.76075 0.59744,-0.63527 1.57845,0.34505 0.94266,0.94266 z"
           style="fill:#ffffff;fill-opacity:1;fill-rule:nonzero;stroke:none;stroke-width:0.133333" />
        <path
           id="path239"
           d="m 554.93503,304.31537 c -24.62622,24.35466 -49.25245,48.70933 -73.87867,73.06399 0.51105,-1.12426 2.39655,-2.50406 3.42479,-3.7204 23.1704,-23.42876 46.34081,-46.85751 69.51121,-70.28626 0.59737,-0.6352 1.57849,0.34497 0.94267,0.94266 z"
           style="fill:#ffffff;fill-opacity:1;fill-rule:nonzero;stroke:none;stroke-width:0.133333" />
        <path
           id="path240"
           d="m 552.82836,301.95003 c -24.71289,24.44133 -49.42577,48.88267 -74.13866,73.324 0.51107,-1.12424 2.3966,-2.50401 3.42486,-3.72033 23.25705,-23.51545 46.51409,-47.03089 69.77114,-70.54633 0.59652,-0.63764 1.57868,0.34599 0.94266,0.94267"
           style="fill:#ffffff;fill-opacity:1;fill-rule:nonzero;stroke:none;stroke-width:0.133333" />
        <path
           id="path241"
           d="m 550.5937,299.71403 c -24.71333,24.44133 -49.42667,48.88267 -74.14,73.324 0.51621,-1.12625 2.39661,-2.50361 3.42619,-3.72033 23.25705,-23.51545 46.51409,-47.03089 69.77114,-70.54633 0.59738,-0.63524 1.57853,0.34498 0.94267,0.94267"
           style="fill:#ffffff;fill-opacity:1;fill-rule:nonzero;stroke:none;stroke-width:0.133333" />
        <path
           id="path242"
           d="m 548.2257,297.6087 c -24.62578,24.35422 -49.25156,48.70844 -73.87734,73.06266 0.51622,-1.12629 2.39654,-2.50368 3.4261,-3.72044 23.16952,-23.42829 46.33905,-46.85659 69.50857,-70.28489 0.59639,-0.63538 1.58095,0.34578 0.94267,0.94267 z"
           style="fill:#ffffff;fill-opacity:1;fill-rule:nonzero;stroke:none;stroke-width:0.133333" />
        <path
           id="path243"
           d="m 545.72703,295.63537 c -24.45067,24.17955 -48.90133,48.35911 -73.352,72.53866 0.51101,-1.1243 2.39643,-2.50418 3.42461,-3.72058 22.99491,-23.25358 45.98981,-46.50717 68.98472,-69.76075 0.59645,-0.63543 1.58088,0.34585 0.94267,0.94266 z"
           style="fill:#ffffff;fill-opacity:1;fill-rule:nonzero;stroke:none;stroke-width:0.133333" />
        <path
           id="path244"
           d="m 543.07236,293.81803 c -24.172,23.9 -48.344,47.8 -72.516,71.7 0.51614,-1.12637 2.39631,-2.50391 3.42575,-3.72078 22.71587,-22.97396 45.43173,-45.94792 68.14759,-68.92188 0.59751,-0.63535 1.5784,0.34513 0.94266,0.94267"
           style="fill:#ffffff;fill-opacity:1;fill-rule:nonzero;stroke:none;stroke-width:0.133333" />
        <path
           id="path245"
           d="m 540.2777,292.14203 c -23.79778,23.52711 -47.59555,47.05422 -71.39333,70.58133 0.51087,-1.12444 2.39601,-2.5046 3.42399,-3.72119 22.34178,-22.60093 44.68356,-45.20187 67.02534,-67.8028 0.5976,-0.6348 1.57989,0.34327 0.944,0.94267"
           style="fill:#ffffff;fill-opacity:1;fill-rule:nonzero;stroke:none;stroke-width:0.133333" />
        <path
           id="path246"
           d="m 537.3337,290.61403 c -23.32711,23.05467 -46.65422,46.10933 -69.98133,69.164 0.5108,-1.12451 2.39581,-2.50479 3.42371,-3.72147 21.8712,-22.1284 43.74241,-44.25679 65.61362,-66.38519 0.59714,-0.63599 1.58002,0.34373 0.944,0.94267"
           style="fill:#ffffff;fill-opacity:1;fill-rule:nonzero;stroke:none;stroke-width:0.133333" />
        <path
           id="path247"
           d="m 534.2257,289.24737 c -22.74578,22.47511 -45.49155,44.95022 -68.23733,67.42533 0.51065,-1.12465 2.39537,-2.50523 3.42306,-3.72211 21.29053,-21.54863 42.58107,-43.09726 63.8716,-64.64589 0.59638,-0.63538 1.58096,0.34577 0.94267,0.94266"
           style="fill:#ffffff;fill-opacity:1;fill-rule:nonzero;stroke:none;stroke-width:0.133333" />
        <path
           id="path248"
           d="m 530.93503,288.07003 c -22.04222,21.76978 -44.08444,43.53955 -66.12666,65.30933 0.51053,-1.12478 2.395,-2.5056 3.42251,-3.72265 20.58716,-20.84312 41.17432,-41.68623 61.76148,-62.52934 0.59745,-0.63785 1.57887,0.34352 0.94267,0.942"
           style="fill:#ffffff;fill-opacity:1;fill-rule:nonzero;stroke:none;stroke-width:0.133333" />
        <path
           id="path249"
           d="m 527.46303,287.06737 c -21.21867,20.94711 -42.43733,41.89422 -63.656,62.84133 0.51203,-1.12378 2.39412,-2.50551 3.42153,-3.72229 19.76393,-20.02057 39.52787,-40.04114 59.2918,-60.06171 0.59798,-0.63827 1.57936,0.34468 0.94267,0.94267 z"
           style="fill:#ffffff;fill-opacity:1;fill-rule:nonzero;stroke:none;stroke-width:0.133333" />
        <path
           id="path250"
           d="m 523.75903,286.29937 c -20.23955,19.96844 -40.47911,39.93689 -60.71866,59.90533 0.51178,-1.12643 2.39334,-2.50655 3.4204,-3.7244 18.7852,-19.04108 37.57039,-38.08217 56.35559,-57.12326 0.59724,-0.63705 1.5793,0.34717 0.94267,0.94266"
           style="fill:#ffffff;fill-opacity:1;fill-rule:nonzero;stroke:none;stroke-width:0.133333" />
        <path
           id="path251"
           d="m 519.82836,285.75937 c -19.10978,18.83778 -38.21955,37.67555 -57.32933,56.51333 0.51146,-1.12674 2.39241,-2.50747 3.41904,-3.72574 17.65587,-17.90998 35.31175,-35.81995 52.96763,-53.72992 0.59704,-0.63651 1.5812,0.34345 0.94266,0.94267"
           style="fill:#ffffff;fill-opacity:1;fill-rule:nonzero;stroke:none;stroke-width:0.133333" />
        <path
           id="path252"
           d="m 515.57636,285.53937 c -17.76578,17.49378 -35.53155,34.98755 -53.29733,52.48133 0.51271,-1.12599 2.39082,-2.50809 3.41702,-3.72641 16.31255,-16.56586 32.6251,-33.13173 48.93765,-49.69759 0.59823,-0.63844 1.58041,0.34382 0.94266,0.94267 z"
           style="fill:#ffffff;fill-opacity:1;fill-rule:nonzero;stroke:none;stroke-width:0.133333" />
        <path
           id="path253"
           d="m 510.96303,285.6807 c -16.18089,15.90889 -32.36177,31.81778 -48.54266,47.72667 0.51037,-1.12781 2.3892,-2.51064 3.41434,-3.73037 14.72855,-14.97954 29.4571,-29.95909 44.18565,-44.93863 0.59664,-0.64097 1.58248,0.34563 0.94267,0.94267"
           style="fill:#ffffff;fill-opacity:1;fill-rule:nonzero;stroke:none;stroke-width:0.133333" />
        <path
           id="path254"
           d="m 505.85903,286.31137 c -14.26889,13.99733 -28.53777,27.99467 -42.80666,41.992 0.51112,-1.12755 2.38609,-2.51273 3.41011,-3.73319 12.81796,-13.06705 25.63592,-26.13409 38.45388,-39.20114 0.59731,-0.64012 1.58384,0.3449 0.94267,0.94266"
           style="fill:#ffffff;fill-opacity:1;fill-rule:nonzero;stroke:none;stroke-width:0.133333" />
        <path
           id="path255"
           d="m 500.0417,287.6567 c -11.88178,11.60978 -23.76355,23.21955 -35.64533,34.82933 0.5129,-1.13238 2.38153,-2.51777 3.40445,-3.74138 10.43273,-10.67676 20.86547,-21.35353 31.29821,-32.03029 0.59751,-0.64183 1.58584,0.34456 0.94267,0.94266"
           style="fill:#ffffff;fill-opacity:1;fill-rule:nonzero;stroke:none;stroke-width:0.133333" />
        <path
           id="path256"
           d="m 492.8657,290.36203 c -8.64228,8.2851 -17.18831,16.81067 -25.89067,24.94567 8.14159,-8.69994 16.66108,-17.24689 24.948,-25.888 0.59703,-0.64724 1.59298,0.34601 0.94267,0.94267"
           style="fill:#ffffff;fill-opacity:1;fill-rule:nonzero;stroke:none;stroke-width:0.133333" />
      </g>
    </g>
  </g>
</svg>
