<?xml version="1.0" encoding="UTF-8" standalone="no"?>
<!-- Created with Inkscape (http://www.inkscape.org/) -->

<svg
   version="1.1"
   id="svg1"
   width="113.70465"
   height="45.687286"
   viewBox="0 0 113.70465 45.687287"
   xmlns="http://www.w3.org/2000/svg"
   xmlns:svg="http://www.w3.org/2000/svg">
  <defs
     id="defs1" />
  <g
     id="g1"
     transform="translate(-871.50575,-345.13003)">
    <g
       id="group-R5"
       transform="translate(0.80157052)">
      <g
         id="white-dots-upper-triangle"
         transform="translate(113.02144,20.039263)">
        <title
           id="title576">white-dots-upper-triangle</title>
        <path
           id="path505"
           d="m 759.67731,329.16401 c -5.27425,-0.56258 1.51608,-7.35288 2.07867,-2.07866 0.0313,1.10726 -0.97134,2.11005 -2.07867,2.07866 z"
           style="fill:#ffffff;fill-opacity:1;fill-rule:nonzero;stroke:none;stroke-width:0.133333" />
        <path
           id="path506"
           d="m 787.08398,329.16401 c -5.27149,-0.56442 1.51637,-7.35134 2.07867,-2.07866 0.0309,1.10715 -0.97152,2.10956 -2.07867,2.07866 z"
           style="fill:#ffffff;fill-opacity:1;fill-rule:nonzero;stroke:none;stroke-width:0.133333" />
        <path
           id="path507"
           d="m 814.49331,329.16401 c -5.27585,-0.56019 1.51418,-7.35377 2.07734,-2.07866 0.0311,1.10666 -0.97026,2.10976 -2.07734,2.07866 z"
           style="fill:#ffffff;fill-opacity:1;fill-rule:nonzero;stroke:none;stroke-width:0.133333" />
        <path
           id="path508"
           d="m 841.89865,329.16401 c -5.26987,-0.56557 1.5173,-7.35089 2.07866,-2.07866 0.0313,1.10725 -0.97133,2.11006 -2.07866,2.07866 z"
           style="fill:#ffffff;fill-opacity:1;fill-rule:nonzero;stroke:none;stroke-width:0.133333" />
        <path
           id="path509"
           d="m 869.30798,329.16401 c -5.27587,-0.56141 1.51513,-7.35334 2.07866,-2.07866 0.0309,1.10715 -0.97151,2.10956 -2.07866,2.07866 z"
           style="fill:#ffffff;fill-opacity:1;fill-rule:nonzero;stroke:none;stroke-width:0.133333" />
        <path
           id="path510"
           d="m 814.49331,349.97068 c -5.2764,-0.55986 1.51452,-7.35436 2.07734,-2.07867 0.0316,1.10684 -0.97015,2.11013 -2.07734,2.07867 z"
           style="fill:#ffffff;fill-opacity:1;fill-rule:nonzero;stroke:none;stroke-width:0.133333" />
        <path
           id="path511"
           d="m 841.89865,349.97068 c -5.27041,-0.56526 1.51764,-7.35147 2.07866,-2.07867 0.0317,1.10743 -0.97123,2.11041 -2.07866,2.07867 z"
           style="fill:#ffffff;fill-opacity:1;fill-rule:nonzero;stroke:none;stroke-width:0.133333" />
        <path
           id="path512"
           d="m 869.30798,349.97068 c -5.2764,-0.5611 1.51547,-7.35392 2.07866,-2.07867 0.0314,1.10733 -0.97141,2.10991 -2.07866,2.07867 z"
           style="fill:#ffffff;fill-opacity:1;fill-rule:nonzero;stroke:none;stroke-width:0.133333" />
        <path
           id="path513"
           d="m 841.89865,370.77734 c -5.26898,-0.56501 1.5149,-7.35063 2.07866,-2.08 0.0315,1.10748 -0.97073,2.11151 -2.07866,2.08 z"
           style="fill:#ffffff;fill-opacity:1;fill-rule:nonzero;stroke:none;stroke-width:0.133333" />
        <path
           id="path514"
           d="m 869.30798,370.77734 c -5.27498,-0.56085 1.51273,-7.35308 2.07866,-2.08 0.0311,1.10738 -0.97092,2.11101 -2.07866,2.08 z"
           style="fill:#ffffff;fill-opacity:1;fill-rule:nonzero;stroke:none;stroke-width:0.133333" />
      </g>
    </g>
  </g>
</svg>
